<svg width="237" height="196" viewBox="0 0 237 196" fill="none" xmlns="http://www.w3.org/2000/svg">
<circle cx="94" cy="49.002" r="25" fill="url(#paint0_radial)"/>
<g opacity="0.67" filter="url(#filter0_f)">
<path d="M146.965 52.365C163.708 67.4756 202.999 83.4986 187.889 100.242C172.778 116.985 86.4095 164.813 50.4482 146.326C33.705 131.216 65.4487 82.5615 80.5593 65.8184C95.6699 49.0752 130.221 37.2544 146.965 52.365Z" fill="url(#paint1_linear)" fill-opacity="0.3"/>
</g>
<g filter="url(#filter1_ii)">
<path fill-rule="evenodd" clip-rule="evenodd" d="M103.197 117.619H88.1791C71.8156 117.619 58.5503 104.354 58.5503 87.9901C58.5503 71.6265 71.8155 58.3613 88.1791 58.3613H89.8026C95.5463 58.3613 100.928 59.9107 105.553 62.6144C111.565 44.8036 128.409 31.9797 148.249 31.9797H150.481C174.13 31.9797 193.301 51.1508 193.301 74.7995C193.301 98.4481 174.13 117.619 150.481 117.619H103.197V117.619Z" fill="white"/>
</g>
<defs>
<filter id="filter0_f" x="0.699707" y="0.410339" width="235.581" height="195.096" filterUnits="userSpaceOnUse" color-interpolation-filters="sRGB">
<feFlood flood-opacity="0" result="BackgroundImageFix"/>
<feBlend mode="normal" in="SourceGraphic" in2="BackgroundImageFix" result="shape"/>
<feGaussianBlur stdDeviation="22.5" result="effect1_foregroundBlur"/>
</filter>
<filter id="filter1_ii" x="40.5503" y="16.9797" width="160.75" height="111.639" filterUnits="userSpaceOnUse" color-interpolation-filters="sRGB">
<feFlood flood-opacity="0" result="BackgroundImageFix"/>
<feBlend mode="normal" in="SourceGraphic" in2="BackgroundImageFix" result="shape"/>
<feColorMatrix in="SourceAlpha" type="matrix" values="0 0 0 0 0 0 0 0 0 0 0 0 0 0 0 0 0 0 127 0" result="hardAlpha"/>
<feOffset dx="8" dy="-15"/>
<feGaussianBlur stdDeviation="15"/>
<feComposite in2="hardAlpha" operator="arithmetic" k2="-1" k3="1"/>
<feColorMatrix type="matrix" values="0 0 0 0 0 0 0 0 0 0 0 0 0 0 0 0 0 0 0.2 0"/>
<feBlend mode="normal" in2="shape" result="effect1_innerShadow"/>
<feColorMatrix in="SourceAlpha" type="matrix" values="0 0 0 0 0 0 0 0 0 0 0 0 0 0 0 0 0 0 127 0" result="hardAlpha"/>
<feOffset dx="-18" dy="11"/>
<feGaussianBlur stdDeviation="15"/>
<feComposite in2="hardAlpha" operator="arithmetic" k2="-1" k3="1"/>
<feColorMatrix type="matrix" values="0 0 0 0 1 0 0 0 0 1 0 0 0 0 1 0 0 0 1 0"/>
<feBlend mode="normal" in2="effect1_innerShadow" result="effect2_innerShadow"/>
</filter>
<radialGradient id="paint0_radial" cx="0" cy="0" r="1" gradientUnits="userSpaceOnUse" gradientTransform="translate(103.947 35.3747) rotate(132.136) scale(52.0899)">
<stop stop-color="#FFF72C"/>
<stop offset="1" stop-color="#DF7800"/>
</radialGradient>
<linearGradient id="paint1_linear" x1="68.2296" y1="153.73" x2="165.484" y2="44.5849" gradientUnits="userSpaceOnUse">
<stop stop-color="#254659"/>
<stop offset="1" stop-color="#023553"/>
</linearGradient>
</defs>
</svg>
