<svg width="18" height="22" viewBox="0 0 18 22" fill="none" xmlns="http://www.w3.org/2000/svg">
<path d="M9 21.728L2.636 15.364C1.37734 14.1054 0.520187 12.5017 0.172928 10.7559C-0.17433 9.01007 0.00390685 7.20047 0.685099 5.55595C1.36629 3.91142 2.51984 2.50582 3.99988 1.51689C5.47992 0.52796 7.21998 0.00012207 9 0.00012207C10.78 0.00012207 12.5201 0.52796 14.0001 1.51689C15.4802 2.50582 16.6337 3.91142 17.3149 5.55595C17.9961 7.20047 18.1743 9.01007 17.8271 10.7559C17.4798 12.5017 16.6227 14.1054 15.364 15.364L9 21.728ZM13.95 13.95C14.9289 12.971 15.5955 11.7238 15.8656 10.3659C16.1356 9.00807 15.9969 7.60064 15.4671 6.3216C14.9373 5.04256 14.04 3.94935 12.8889 3.18021C11.7378 2.41107 10.3844 2.00055 9 2.00055C7.61557 2.00055 6.26222 2.41107 5.11109 3.18021C3.95996 3.94935 3.06275 5.04256 2.53292 6.3216C2.00308 7.60064 1.86442 9.00807 2.13445 10.3659C2.40449 11.7238 3.07111 12.971 4.05 13.95L9 18.9L13.95 13.95ZM9 11C8.46957 11 7.96086 10.7893 7.58579 10.4143C7.21072 10.0392 7 9.53048 7 9.00004C7 8.46961 7.21072 7.9609 7.58579 7.58583C7.96086 7.21076 8.46957 7.00004 9 7.00004C9.53044 7.00004 10.0391 7.21076 10.4142 7.58583C10.7893 7.9609 11 8.46961 11 9.00004C11 9.53048 10.7893 10.0392 10.4142 10.4143C10.0391 10.7893 9.53044 11 9 11Z" fill="white"/>
</svg>
